<svg width="26" height="23" viewBox="0 0 26 23" fill="none" xmlns="http://www.w3.org/2000/svg">
<path d="M26 2.70588C25.043 3.17941 24.0115 3.49059 22.9426 3.63941C24.0363 2.92235 24.8815 1.78588 25.2792 0.419412C24.2476 1.09588 23.1042 1.56941 21.8987 1.84C20.9168 0.676471 19.5373 0 17.9713 0C15.0507 0 12.6644 2.59765 12.6644 5.80412C12.6644 6.26412 12.7142 6.71059 12.8011 7.13C8.37667 6.88647 4.4369 4.57294 1.81453 1.06882C1.35468 1.92118 1.09369 2.92235 1.09369 3.97765C1.09369 5.99353 2.02581 7.77941 3.4675 8.79412C2.58509 8.79412 1.76482 8.52353 1.04398 8.11765V8.15823C1.04398 10.9724 2.88337 13.3265 5.31931 13.8541C4.53723 14.0871 3.71618 14.1195 2.92065 13.9488C3.25821 15.1022 3.91931 16.1114 4.81102 16.8346C5.70272 17.5577 6.78019 17.9585 7.89197 17.9806C6.00738 19.6047 3.67131 20.4826 1.26769 20.47C0.845124 20.47 0.422562 20.4429 0 20.3888C2.36138 22.0394 5.17017 23 8.17782 23C17.9713 23 23.3528 14.1518 23.3528 6.48059C23.3528 6.22353 23.3528 5.98 23.3403 5.72294C24.3843 4.91118 25.2792 3.88294 26 2.70588V2.70588Z" fill="white"/>
</svg>
