<svg width="31" height="20" viewBox="0 0 31 20" fill="none" xmlns="http://www.w3.org/2000/svg">
<path fill-rule="evenodd" clip-rule="evenodd" d="M12.2993 13.6897V5.69885L20.6739 9.70852L12.2993 13.6897V13.6897ZM30.69 4.31537C30.69 4.31537 30.3877 2.35461 29.4577 1.49154C28.2797 0.359732 26.9576 0.354045 26.3515 0.287218C22.0146 1.90687e-07 15.5062 0 15.5062 0H15.4938C15.4938 0 8.9869 1.90687e-07 4.64845 0.287218C4.0424 0.354045 2.7218 0.358311 1.54225 1.49154C0.61225 2.35461 0.31 4.31537 0.31 4.31537C0.31 4.31537 0 6.61595 0 8.91796V11.0749C0 13.3755 0.31 15.6775 0.31 15.6775C0.31 15.6775 0.61225 17.6369 1.54225 18.4999C2.72025 19.6332 4.27025 19.5962 4.96 19.7156C7.44 19.9332 15.5 20 15.5 20C15.5 20 22.0146 19.9915 26.3515 19.7043C26.9576 19.6374 28.2797 19.6332 29.4577 18.4999C30.3877 17.6369 30.69 15.6775 30.69 15.6775C30.69 15.6775 31 13.3755 31 11.0749V8.91796C31 6.61595 30.69 4.31537 30.69 4.31537V4.31537Z" fill="white"/>
</svg>
